<?xml version="1.0" encoding="UTF-8"?>
<svg id="Layer_1" data-name="Layer 1" xmlns="http://www.w3.org/2000/svg" xmlns:xlink="http://www.w3.org/1999/xlink" viewBox="0 0 525 155.9">
    <defs>
        <clipPath id="clippath">
            <path d="m482.8,63c-1.6-2.1-2.5-5.2-2.5-9.1s.8-7,2.5-9.1c3.3-3.9,9.1-4.3,13-1,.4.3.7.7,1,1,1.6,2.1,2.4,5.2,2.4,9.1s-.8,7-2.4,9.1c-3.3,3.9-9.1,4.3-13,1-.4-.3-.7-.6-1-1m-8.2-23.9c-6.7,8.7-6.7,20.8,0,29.6,3.3,4.1,8.4,6.2,15.2,6.2s11.9-2,15.2-6.2c6.7-8.7,6.7-20.8,0-29.6-3.3-4.2-8.4-6.3-15.2-6.2s-11.9,2.1-15.2,6.2" fill="none"/>
        </clipPath>
        <clipPath id="clippath-1">
            <path d="m403.3,66c-1.1-1-1.6-2.4-1.5-3.8-.1-1.8.8-3.5,2.4-4.4,1.5-.7,3.1-1.2,4.7-1.4l2.3-.4c.9-.2,1.8-.4,2.7-.7.7-.3,1.4-.6,2-1v3.9c-.1,3.5-1,5.9-2.9,7.2-1.8,1.3-3.9,2-6.1,2-1.3-.1-2.5-.5-3.6-1.4m-7.5-27.9c-1.8,2.5-2.8,5.5-2.9,8.6h9.8c.2-1.3.7-2.6,1.5-3.6,1-1.2,2.7-1.8,5.2-1.8,1.7-.1,3.4.2,5,.9,1.2.7,1.8,2,1.7,3.4,0,1.4-.9,2.6-2.2,3-1.3.5-2.7.8-4.1.9l-3.5.4c-3.1.3-6.2,1.1-9,2.6-3.7,2.2-5.6,5.7-5.6,10.6,0,3.8,1.1,6.7,3.5,8.7s5.2,2.9,8.8,3.1c22.2,1,22-11.9,22.2-14.6v-15c0-4.8-1.7-8-5-9.8-3.5-1.8-7.5-2.7-11.4-2.6-6.6,0-11.3,1.7-14,5.2" fill="none"/>
        </clipPath>
        <clipPath id="clippath-2">
            <path d="m356.3,38.5c-3.4,3.8-5.1,9.1-5.1,15.9,0,6,1.5,10.9,4.6,14.7s7.9,5.7,14.4,5.7,11.5-2.3,14.8-6.8c2-2.6,3.2-5.7,3.5-9h-10.8c-.1,1.8-.8,3.6-1.9,5.1-1,1.3-2.8,2-5.3,2-3.2.2-6.2-1.9-7.2-4.9-.8-2.2-1.1-4.6-1-7-.1-2.5.3-5,1-7.3,1.3-3.5,3.8-5.2,7.4-5.2,2.1-.2,4.2.7,5.6,2.4.8,1.2,1.3,2.6,1.5,4h10.9c-.6-5.7-2.5-9.6-5.8-11.8s-7.4-3.3-12.5-3.3c-6-.1-10.7,1.7-14.1,5.5" fill="none"/>
        </clipPath>
        <clipPath id="clippath-3">
            <path d="m327.2,52.9v20.4h10.2v-19.1c0-3.1.4-5.4,1.2-6.9,1.4-2.7,4.1-4,8.2-4h1.2c.5,0,1.1.1,1.7.1v-10.5h-1.4c-22.4,0-21,20.1-21.1,20" fill="none"/>
        </clipPath>
        <clipPath id="clippath-4">
            <path d="m297.1,43.7c1.6-1.6,3.9-2.4,6.1-2.3,2.2-.1,4.4.7,6.1,2.1,1.7,1.6,2.7,3.9,2.7,6.3h-17.7c.3-2.3,1.3-4.4,2.8-6.1m-7.9-5.3c-3.6,3.7-5.4,8.9-5.4,15.8,0,7.3,2,12.6,6,15.8,3.9,3.2,8.8,4.9,13.8,4.9,6.3,0,11.3-1.9,14.8-5.8,1.7-1.7,2.9-3.7,3.6-6h-11c-.4.6-.9,1.1-1.4,1.6-1.5,1.2-3.5,1.6-5.8,1.6-1.9.1-3.8-.3-5.5-1.3-2.6-1.6-4-4.3-4.2-8.3h28.6c.1-2.6,0-5.2-.3-7.9-.4-2.9-1.5-5.7-3.1-8.2-1.7-2.6-4-4.6-6.8-5.9-2.9-1.3-6-1.9-9.2-1.9-5.8.1-10.5,1.9-14.1,5.6" fill="none"/>
        </clipPath>
        <clipPath id="clippath-5">
            <path d="m251.7,38.3c-2.8-3.5-7-5.5-11.5-5.4-9.9,0-16.3,7.4-16.3,17.1v23.4h9.3v-23.6c0-4.3,2.9-7.3,7-7.3,6.1,0,6.7,5.1,6.7,7.3v23.6h9.3v-23.6c0-4.3,3-7.3,7-7.3,6.1,0,6.8,5.1,6.8,7.3v23.6h9.3v-23.5c0-10-6-17.1-16.1-17.1-4.5,0-8.8,2-11.5,5.5" fill="none"/>
        </clipPath>
        <clipPath id="clippath-6">
            <path d="m443.1,63.1c-1.5-2.7-2.3-5.9-2.1-9-.1-3,.6-5.9,2.1-8.4,1.3-2.3,3.8-3.6,6.5-3.4,1.9,0,3.7.6,5.1,1.9,2.4,2.1,3.6,5.8,3.6,10.6.1,3-.7,5.9-2.2,8.4-1.4,2.1-3.9,3.4-6.5,3.2-2.7.1-5.2-1.1-6.5-3.3m14.8-35v11.1c-1.1-1.8-2.6-3.3-4.4-4.3-1.9-1.1-4-1.6-6.2-1.6-4.7-.1-9.2,2-12.1,5.8-3,3.9-4.5,9.4-4.5,16.1,0,5.8,1.5,10.6,4.6,14.3s9.1,5.3,14.4,5.3c18.6,0,18.4-16.3,18.4-16.3V20.9s-.5-.1-1.2-.1c-2.7.1-9,.8-9,7.3" fill="none"/>
        </clipPath>
        <clipPath id="clippath-7">
            <path d="m336.1,104.7c1.7-1.5,3.9-2.3,6.1-2.2,2.2-.1,4.4.7,6.1,2.1,1.7,1.5,2.7,3.7,2.7,6h-17.7c.3-2.2,1.2-4.3,2.8-5.9m-8-5.1c-3.6,3.5-5.4,8.6-5.4,15.2,0,7,2,12.1,6,15.3,3.9,3.1,8.8,4.8,13.8,4.7,6.3,0,11.2-1.9,14.8-5.6,1.7-1.6,2.9-3.6,3.6-5.8h-11c-.4.6-.9,1.1-1.4,1.6-1.7,1.2-3.8,1.7-5.9,1.6-1.9.1-3.8-.3-5.5-1.3-2.6-1.5-3.9-4.2-4.1-8h28.6c.1-2.5,0-5.1-.4-7.6-.4-2.8-1.5-5.5-3.1-7.9-1.7-2.5-4-4.4-6.8-5.6-2.9-1.2-6.1-1.8-9.2-1.8-5.7-.1-10.4,1.7-14,5.2" fill="none"/>
        </clipPath>
        <clipPath id="clippath-8">
            <path d="m270.4,123.1c-1.6-2.5-2.4-5.4-2.2-8.4,0-4.8,1.2-8.2,3.6-10.3,1.4-1.2,3.2-1.9,5.1-1.9,2.6-.2,5.1,1.1,6.5,3.4,1.5,2.6,2.2,5.5,2.1,8.5.1,3-.6,6.1-2.1,8.7-1.4,2.2-3.8,3.4-6.4,3.2-2.6.2-5.1-1.1-6.6-3.2m-12.1-34.8v30.1s-.2,16.3,18.4,16.3c5.3,0,11.4-1.6,14.4-5.3,3.1-3.7,4.6-8.5,4.6-14.3,0-6.7-1.5-12-4.5-15.8-2.9-3.8-7.4-5.9-12.1-5.8-2.2,0-4.3.5-6.2,1.6-1.8,1.1-3.3,2.6-4.4,4.4v-18.6h-1c-2.6,0-9.2.6-9.2,7.4" fill="none"/>
        </clipPath>
        <clipPath id="clippath-9">
            <path d="m298.8,113v20.2h10.2v-19c0-3.2.4-5.5,1.2-7,1.4-2.7,4.1-4,8.2-4h1.2c.5,0,1.1.1,1.7.1v-10.4l-.9-.1h-.5c-22.4,0-21.1,20.3-21.1,20.2" fill="none"/>
        </clipPath>
        <clipPath id="clippath-10">
            <path d="m223.9,88.2v45.1h9v-52.4h-.2c-1.4-.1-8.8.2-8.8,7.3" fill="none"/>
        </clipPath>
        <clipPath id="clippath-11">
            <path d="m105.5,14.9c-50.1.1-90.6,27-90.4,59.8v3.5c.1,34.8,35.6,62.9,90.8,62.6,55.5-.1,90.5-28.5,90.5-63.2-.1-1.2,0-1.9,0-3.5-.2-32.6-40.6-59.2-90.5-59.2h-.4Z" fill="none"/>
        </clipPath>
        <clipPath id="clippath-12">
            <path d="m105.5,18.1c-47.7.1-86.3,25.5-86.2,56.7.1,31.2,38.8,56.4,86.5,56.2s86.3-25.5,86.2-56.7-38.6-56.2-86.1-56.2h-.4Z" fill="none"/>
        </clipPath>
        <clipPath id="clippath-13">
            <path d="m64.4,81c-3.4.1-6,3-5.9,6.4.1,3.2,2.7,5.7,5.9,5.9,1.6,0,3.1-.7,4.2-1.8.1,0,.1.1,0,.2h0c-.3,1.5-.7,7,5,9.2,2,.8,4.3.4,5.9-1,.5-.4.6-.2.5.3-.2,1.4.1,4.5,4.3,6.1,2.2,1,4.8.5,6.4-1.2.6-.5.7-.4.8.4.1,4.2,3.6,7.5,7.8,7.4s7.5-3.6,7.4-7.8h0c-.1-4.2-3.5-7.6-7.7-7.6-1.7,0-3.6,1-3.9.9,0-.4.1-.8.3-1.2.2-.4,2.4-7.3-3.1-9.6-4.3-1.8-6.9.3-7.7,1.1-.3.3-.4.2-.4-.1-.1-2.6-1.8-4.9-4.3-5.7-3.6-1.1-7.4.3-9.5,3.4-.3-3-2.9-5.3-5.9-5.3h-.1Zm-45.3-13.2c1.6.5,4.1,1.2,5.2,1.4,24.8,5.5,32.6,11.1,33.9,12.3,1.5-1.8,3.8-2.8,6.1-2.8,2.7,0,5.2,1.3,6.7,3.5,1.7-1.4,3.8-2.1,5.9-2.1,1.2,0,2.4.2,3.6.6,2.3.6,4.1,2.3,5,4.5,1.1-.5,2.3-.7,3.5-.7,1.4,0,2.8.3,4.1.9,4.6,1.9,5.3,6.5,4.9,9.9h.9c5.4,0,9.8,4.4,9.8,9.8,0,1.6-.4,3.2-1.2,4.7,1.5.8,5.2,2.7,8.5,2.3,2.6-.3,3.7-1.3,4-1.8s.5-.8.3-1l-7-7.8s-1.1-1.1-.8-1.5c.4-.4,1.1.2,1.6.6,3.5,3,7.9,7.5,7.9,7.5,0,0,.4.7,2,.9,1.9.3,3.9-.1,5.6-1.3.4-.4.9-.8,1.2-1.2l-.1.1c1.8-2.3-.2-4.6-.2-4.6l-8.2-9.2s-1.1-1.1-.8-1.5c.4-.4,1.1.2,1.6.6,2.6,2.1,6.3,5.8,9.7,9.2.7.5,3.8,2.4,7.8-.3,2.4-1.6,3-3.6,2.9-5.2-.2-1.3-.8-2.5-1.7-3.4l-11.2-11.2s-1.1-1-.8-1.5c.4-.5,1.1.2,1.6.6,3.5,3,13.2,11.8,13.2,11.8,2.3,1.5,5.3,1.4,7.6-.2,1.4-.8,2.4-2.3,2.5-4s-.6-3.4-1.9-4.6c-.3-.3-28.3-24.7-34.6-29.5-3.7-2.7-5.7-3.4-7.9-3.7-1.3-.1-2.5,0-3.8.3-2.9.8-6.8,3.4-10.2,6.1-3.6,2.9-6.8,5.5-9.9,6.2-4,.9-8.8-.2-11-1.7-.8-.5-1.4-1.2-1.8-2-.8-1.9.7-3.4.9-3.7l7.7-8.4,2.7-2.7c-2.4.4-4.7.9-7,1.6-2.6.9-5.4,1.4-8.2,1.5-2.8-.3-5.6-.7-8.4-1.3-7.7-2-15.1-4.6-22.3-7.9-10.6,8.3-17.9,18.6-19.9,29.9m89.9-31.3c-13.1.4-18.8,6-24.7,12.1l-7.6,8.3c0,.1-.9,1-.4,1.7,1.3,1.8,5.6,2.8,9.9,1.8,2.5-.6,5.8-3.2,9-5.8,3.5-2.8,6.8-5.5,10.3-6.6,2.4-.9,5.1-1,7.5-.2,2.5.9,4.8,2.3,6.8,4,6,4.5,30,25.5,34.2,29,12.3-5.4,25.2-9.6,38.3-12.5-1.8-10.8-8.4-20.6-18.3-28.6-13.8,5.9-30.7,9-47.2.9-.1,0-8.6-4-17.2-4l-.6-.1" fill="none"/>
        </clipPath>
        <clipPath id="clippath-14">
            <path d="m59,87.4c-.1-3,2.3-5.6,5.3-5.6,2.9-.1,5.3,2.1,5.6,4.9l.2,1.5.8-1.2c1.5-2.2,3.9-3.5,6.5-3.6.8,0,1.6.1,2.4.3,2.3.7,3.8,2.8,3.9,5.2.1.8.6.8.7.8.2,0,.5-.1.7-.3,1-1.1,2.5-1.7,4-1.8,1,0,2.1.3,3,.7,5.2,2.2,2.9,8.9,2.9,9-.5,1.1-.5,1.6-.1,1.9l.2.1h.2c.3-.1.7-.2,1-.3.9-.4,1.9-.6,2.8-.6,3.9,0,7,3.1,7,7s-3.1,7-7,7-7-3-7.2-6.8c0-.3,0-1.2-.8-1.2-.3,0-.6.2-.8.5-.9,1-2.1,1.6-3.5,1.6-.8,0-1.6-.2-2.3-.5-4.1-1.7-4.1-4.4-3.9-5.5.1-.3.1-.6-.1-.8l-.3-.2h-.2c-.2,0-.5.1-.6.3-1,.8-2.2,1.3-3.5,1.3-.6,0-1.3-.1-1.9-.4-5.3-2.1-4.9-7.1-4.6-8.7,0-.3,0-.6-.2-.7l-.4-.3-.4.4c-1,1-2.4,1.6-3.8,1.5h0c-3.1-.1-5.5-2.5-5.6-5.5m50.8-53.8h-.8c-10.9.3-17,4.2-21.1,7.5-3.6.2-7.1.9-10.5,1.9-2.4.8-4.9,1.3-7.4,1.4h-2.9c-2.6-.1-16-3.3-26.6-7.3-1.1.8-2.2,1.6-3.2,2.4,11.1,4.5,24.7,8,28.9,8.2l3.7.2c2.9-.2,5.7-.7,8.4-1.6,1.7-.5,3.5-1,5.3-1.3l-1.5,1.5-7.7,8.3c-.6.6-2,2.3-1.1,4.3.5.9,1.1,1.7,2,2.2,2.5,1.4,5.3,2.1,8.2,2.1,1.1,0,2.2-.1,3.3-.3,3.2-.7,6.6-3.5,10.2-6.3,2.8-2.3,6.9-5.2,10-6.1.9-.2,1.9-.4,2.8-.4.3,0,.5,0,.8.1,2.1.3,4.1,1,7.6,3.6,6.3,4.8,34.4,29.2,34.6,29.4,1.1,1.1,1.7,2.6,1.7,4.1-.1,1.5-.9,2.8-2.2,3.6-1.1.7-2.4,1.1-3.7,1.2-1.1,0-2.3-.3-3.2-.9-.1-.1-9.7-8.9-13.3-11.8-.5-.4-1-.7-1.6-.9-.3,0-.6.1-.8.4-.6.7.1,1.6.8,2.3l11.2,11.2c.8.8,1.4,1.9,1.6,3,.1,1.9-.8,3.4-2.7,4.7-1.2.9-2.6,1.3-4,1.3-1.1,0-2.3-.4-3.2-1l-1.6-1.6c-3-2.9-6-5.9-8.2-7.8-.5-.5-1.1-.8-1.7-.8-.3,0-.5.1-.7.3-.3.3-.5.8.2,1.6.2.2.4.5.6.7l8.2,9.2c1,1.1,1.1,2.7.2,3.9l-.3.4-.7.8c-1.2.9-2.6,1.3-4,1.3-.4,0-.8,0-1.1-.1-.6-.1-1.1-.3-1.6-.6l-.1-.1c-.5-.5-4.6-4.7-8-7.5-.4-.4-1-.7-1.6-.8-.3,0-.6.1-.8.3-.7.8.3,1.9.8,2.3l7,7.7c0,.1-.1.2-.3.5s-1.1,1.1-3.6,1.6c-.3,0-.7.1-1,.1-2.4-.1-4.7-.8-6.8-2,.7-1.4,1-2.9,1-4.5,0-5.7-4.5-10.3-10.2-10.4h-.5c.2-2.6-.2-7.6-5.3-9.8-1.4-.6-2.9-.9-4.4-1-1.1,0-2.2.2-3.2.6-1-2.1-2.9-3.6-5.1-4.3-1.2-.4-2.4-.6-3.7-.6-2.1,0-4.1.7-5.8,1.9-1.7-2.1-4.2-3.3-6.8-3.3-2.3,0-4.6,1-6.2,2.6-2.2-1.7-10.8-7.1-33.9-12.3-1.1-.3-3.7-1-5.2-1.4-.3,1.2-.4,2.5-.6,3.8,0,0,4.3,1,5.1,1.2,23.6,5.2,31.3,10.6,32.6,11.6-.4,1.1-.7,2.2-.7,3.4.1,5,4.2,8.9,9.2,8.8.4,0,.8,0,1.2-.1.7,3.6,3.3,6.5,6.7,7.7,1,.4,2.1.6,3.1.6.7,0,1.3-.1,2-.2,1,2.4,3,4.3,5.4,5.1,1.1.5,2.3.7,3.5.7.9,0,1.9-.2,2.7-.5,1.6,3.9,5.4,6.4,9.6,6.4,2.8,0,5.5-1.2,7.4-3.2,2.7,1.5,5.7,2.4,8.8,2.6.4,0,.9,0,1.3-.1,3.6-.4,5.2-1.9,5.9-2.9.1-.2.3-.4.4-.6.9.3,1.9.5,2.8.4,2.1-.1,4-.8,5.6-2.1,1.7-1.1,2.9-2.9,3.3-4.9v-.1c.6.1,1.2.2,1.9.2,2.1,0,4.1-.7,5.8-1.9,3.7-2.4,4.3-5.5,4.2-7.5.6.1,1.3.2,1.9.2,1.9-.1,3.8-.6,5.5-1.7,2.2-1.4,3.6-3.7,3.8-6.2.1-1.7-.3-3.5-1.2-5,11.8-4.8,23.9-8.7,36.2-11.5-.1-1.2-.3-2.6-.5-3.8-13,2.9-25.7,7-37.8,12.4-8.6-7.5-28.6-24.8-34-28.8-2.1-1.8-4.4-3.1-7-4.1-1.1-.4-2.2-.5-3.4-.5-1.5,0-2.9.3-4.3.7-3.5,1.1-7,3.9-10.3,6.6l-.2.1c-3.1,2.5-6.4,5.1-8.8,5.6-1.1.2-2.2.4-3.3.4-2.7,0-5.2-.8-6.2-1.9-.2-.2-.1-.5.3-1l.1-.1,7.6-8.2c5.9-5.9,11.5-11.6,24.4-11.9h.7c8,0,16.1,3.6,17,3.9,7.2,3.6,15.1,5.5,23.1,5.5s16.5-2.1,25.4-6.2c-1-.8-2-1.7-3.1-2.4-7,3.2-14.6,5-22.3,5.1-7.5-.1-14.9-1.8-21.7-5.1-.4-.2-9.2-4.3-18.4-4.3l.1-.1Z" fill="none"/>
        </clipPath>
    </defs>
    <g clip-path="url(#clippath)">
        <rect x="454.6" y="17.9" width="70.4" height="71.9" fill="#283475"/>
    </g>
    <g clip-path="url(#clippath-1)">
        <rect x="376.7" y="17.9" width="64.4" height="71.9" fill="#283475"/>
    </g>
    <g clip-path="url(#clippath-2)">
        <rect x="336.2" y="17.9" width="67.4" height="71.9" fill="#283475"/>
    </g>
    <g clip-path="url(#clippath-3)">
        <rect x="312.2" y="17.9" width="52.4" height="70.4" fill="#283475"/>
    </g>
    <g clip-path="url(#clippath-4)">
        <rect x="268.8" y="17.9" width="68.9" height="71.9" fill="#283475"/>
    </g>
    <g clip-path="url(#clippath-5)">
        <rect x="208.9" y="17.9" width="85.4" height="70.4" fill="#283475"/>
    </g>
    <g clip-path="url(#clippath-6)">
        <rect x="415.6" y="5.9" width="67.4" height="83.9" fill="#283475"/>
    </g>
    <g clip-path="url(#clippath-7)">
        <rect x="307.7" y="79.3" width="68.9" height="70.4" fill="#283475"/>
    </g>
    <g clip-path="url(#clippath-8)">
        <rect x="243.3" y="65.8" width="67.4" height="83.9" fill="#283475"/>
    </g>
    <g clip-path="url(#clippath-9)">
        <rect x="283.8" y="77.8" width="52.4" height="70.4" fill="#283475"/>
    </g>
    <g clip-path="url(#clippath-10)">
        <rect x="208.9" y="65.8" width="38.9" height="82.4" fill="#283475"/>
    </g>
    <rect x="240.3" y="80.8" width="10.5" height="10.5" fill="#283475"/>
    <rect x="240.3" y="94.3" width="10.5" height="39" fill="#283475"/>
    <g clip-path="url(#clippath-11)">
        <rect width="211.3" height="155.9" fill="#283475"/>
    </g>
    <g clip-path="url(#clippath-12)">
        <rect x="4.3" y="3.1" width="202.7" height="142.9" fill="#fcd10a"/>
    </g>
    <g clip-path="url(#clippath-13)">
        <rect x="4.1" y="21.5" width="203.2" height="106.3" fill="#fff"/>
    </g>
    <g clip-path="url(#clippath-14)">
        <rect x="3.5" y="18.6" width="204.3" height="112.2" fill="#283475"/>
    </g>
</svg>
